<svg viewBox="0 0 240 160" xmlns="http://www.w3.org/2000/svg">
  <!-- Background -->
  <rect width="240" height="160" rx="8" fill="#f8f9fa" opacity="0.4"/>
  
  <!-- Dashboard Elements -->
  <!-- Stats Cards Row -->
  <rect x="20" y="20" width="200" height="30" rx="4" fill="#42A5F5" opacity="0.15"/>
  <rect x="20" y="20" width="45" height="30" rx="4" fill="#42A5F5" opacity="0.3"/>
  <rect x="70" y="20" width="45" height="30" rx="4" fill="#66BB6A" opacity="0.3"/>
  <rect x="120" y="20" width="45" height="30" rx="4" fill="#AB47BC" opacity="0.3"/>
  <rect x="170" y="20" width="45" height="30" rx="4" fill="#FFA726" opacity="0.3"/>
  
  <!-- Chart 1 (Bar chart) -->
  <rect x="20" y="60" width="100" height="80" rx="4" fill="#ffffff" stroke="#e0e0e0" stroke-width="1"/>
  <rect x="30" y="105" width="10" height="25" rx="1" fill="#42A5F5"/>
  <rect x="45" y="95" width="10" height="35" rx="1" fill="#42A5F5"/>
  <rect x="60" y="85" width="10" height="45" rx="1" fill="#42A5F5"/>
  <rect x="75" y="115" width="10" height="15" rx="1" fill="#42A5F5"/>
  <rect x="90" y="75" width="10" height="55" rx="1" fill="#42A5F5"/>
  <rect x="30" y="70" width="70" height="1" fill="#e0e0e0"/>
  <rect x="30" y="80" width="70" height="1" fill="#e0e0e0"/>
  <rect x="30" y="90" width="70" height="1" fill="#e0e0e0"/>
  <rect x="30" y="100" width="70" height="1" fill="#e0e0e0"/>
  <rect x="30" y="110" width="70" height="1" fill="#e0e0e0"/>
  <rect x="30" y="120" width="70" height="1" fill="#e0e0e0"/>
  
  <!-- Chart 2 (Pie chart) -->
  <rect x="130" y="60" width="90" height="80" rx="4" fill="#ffffff" stroke="#e0e0e0" stroke-width="1"/>
  <circle cx="175" cy="100" r="30" fill="#f5f5f5" stroke="#e0e0e0" stroke-width="1"/>
  <path d="M175,70 A30,30 0 0,1 205,100 L175,100 Z" fill="#42A5F5"/>
  <path d="M175,100 A30,30 0 0,1 145,100 L175,100 Z" fill="#66BB6A"/>
  <path d="M175,100 A30,30 0 0,1 175,130 L175,100 Z" fill="#FFA726"/>
  <path d="M175,100 A30,30 0 0,1 175,70 L175,100 Z" fill="#EF5350"/>
  
  <!-- Header Text -->
  <rect x="30" y="25" width="25" height="6" rx="1" fill="#ffffff"/>
  <rect x="80" y="25" width="25" height="6" rx="1" fill="#ffffff"/>
  <rect x="130" y="25" width="25" height="6" rx="1" fill="#ffffff"/>
  <rect x="180" y="25" width="25" height="6" rx="1" fill="#ffffff"/>
  
  <!-- Data Points -->
  <rect x="30" y="35" width="15" height="8" rx="1" fill="#ffffff"/>
  <rect x="80" y="35" width="15" height="8" rx="1" fill="#ffffff"/>
  <rect x="130" y="35" width="15" height="8" rx="1" fill="#ffffff"/>
  <rect x="180" y="35" width="15" height="8" rx="1" fill="#ffffff"/>
</svg>